<?xml version="1.0" encoding="UTF-8"?>
<svg version="1.1" xmlns="http://www.w3.org/2000/svg" width="512" height="512">
<path d="M0 0 C1.13847661 -0.00384115 2.27695322 -0.00768229 3.44992912 -0.01163983 C4.70622914 -0.01077335 5.96252916 -0.00990687 7.25689888 -0.00901413 C8.60061037 -0.01159724 9.94432109 -0.01461025 11.28803074 -0.01801753 C14.98851655 -0.02609696 18.68898296 -0.02787762 22.38947654 -0.028615 C26.37729206 -0.03046389 30.36509748 -0.03801034 34.35290718 -0.04475021 C43.07592616 -0.05834021 51.79894056 -0.06435914 60.52196836 -0.06876087 C65.96625777 -0.07152186 71.4105454 -0.07575892 76.8548336 -0.08026505 C91.92197432 -0.09245801 106.98911361 -0.10275764 122.05625916 -0.10614014 C123.5031263 -0.10646949 123.5031263 -0.10646949 124.97922308 -0.10680549 C126.42959025 -0.10713291 126.42959025 -0.10713291 127.90925777 -0.10746694 C129.86865417 -0.10791041 131.82805057 -0.10835697 133.78744698 -0.10880661 C134.75937933 -0.10902804 135.73131169 -0.10924947 136.73269655 -0.10947761 C152.48807432 -0.1134272 168.24340589 -0.13088602 183.99876581 -0.15416613 C200.16597419 -0.17786244 216.33315937 -0.19034118 232.5003854 -0.19150805 C241.58119416 -0.19242572 250.66194271 -0.1982012 259.74273491 -0.21632767 C267.47382706 -0.23170538 275.20484037 -0.23686289 282.9359449 -0.22858956 C286.8818638 -0.22467492 290.82762384 -0.22565217 294.77352333 -0.23964691 C298.38455038 -0.25233713 301.99529841 -0.25123165 305.60632481 -0.2390562 C307.53412911 -0.2361583 309.46193802 -0.24807181 311.38970459 -0.26047826 C312.53339669 -0.25388841 313.67708879 -0.24729857 314.85543823 -0.24050903 C315.84222403 -0.24110612 316.82900984 -0.24170321 317.84569824 -0.24231839 C321.05573961 0.20073986 322.94535216 1.23794997 325.55356026 3.13142776 C327.1133309 6.25096904 326.67460152 9.5610216 326.65121651 12.98299026 C326.64909409 14.14403778 326.64909409 14.14403778 326.64692879 15.3285408 C326.64132429 17.80454218 326.62877109 20.28045365 326.61606026 22.75642776 C326.61104583 24.43350979 326.60648283 26.11059324 326.60238838 27.78767776 C326.59135341 31.90229582 326.5740858 36.01684654 326.55356026 40.13142776 C327.36122337 40.12476593 328.16888649 40.1181041 329.00102425 40.11124039 C336.60831822 40.0511572 344.21549734 40.00546774 351.82296658 39.97599125 C355.73416252 39.96032767 359.6451626 39.93907714 363.5562458 39.90510941 C367.32988284 39.87254008 371.10333135 39.85457996 374.87709808 39.84679604 C376.31764062 39.84124811 377.75817271 39.83041441 379.1986351 39.81423759 C381.21438365 39.79249818 383.23032147 39.79120266 385.24618721 39.79085159 C386.39424339 39.78418976 387.54229958 39.77752792 388.72514534 39.77066422 C391.55356026 40.13142776 391.55356026 40.13142776 393.42251778 41.34222794 C394.91910323 43.7096814 394.94063135 45.30307047 394.95761299 48.0992012 C394.97663925 49.61788803 394.97663925 49.61788803 394.99604988 51.1672554 C394.99164642 52.81241135 394.99164642 52.81241135 394.98715401 54.49080276 C394.99239586 55.6273732 394.99763771 56.76394363 395.00303841 57.9349556 C395.00947155 60.34923359 395.00810501 62.76354288 394.99960518 65.17781448 C394.99118882 68.82570417 395.01968763 72.47197794 395.05160713 76.11970901 C395.12311012 99.35608471 391.12639751 117.6526798 374.55356026 135.13142776 C358.87774992 150.4632548 338.9725845 155.37608954 317.57309151 155.16658401 C316.57342354 155.14918167 316.57342354 155.14918167 315.55356026 155.13142776 C315.22356026 156.28642776 314.89356026 157.44142776 314.55356026 158.63142776 C307.06502169 180.888061 287.39389987 215.21125796 265.55356026 226.13142776 C266.52346759 226.13501029 266.52346759 226.13501029 267.51296902 226.1386652 C283.23649746 226.19776646 298.95984798 226.27328496 314.6832037 226.36714268 C322.28686641 226.41213423 329.89048194 226.45154103 337.49423409 226.47786331 C344.12062585 226.50081632 350.7468687 226.53418383 357.37314242 226.58012933 C360.88267881 226.60409826 364.39206739 226.62280284 367.90168381 226.62904167 C371.81681344 226.63619629 375.73157201 226.66659924 379.64657784 226.69905472 C380.81398506 226.69761963 381.98139229 226.69618454 383.18417549 226.69470596 C384.24848289 226.70724411 385.3127903 226.71978226 386.40934944 226.73270035 C387.33575139 226.73730931 388.26215334 226.74191828 389.21662807 226.74666691 C391.55356026 227.13142776 391.55356026 227.13142776 393.34772968 228.44150448 C395.39503345 231.31071877 394.97010716 233.73954585 394.55356026 237.13142776 C391.77082467 240.49953107 388.66209654 242.36373213 384.81918526 244.37361526 C383.69592842 244.96215286 382.57267159 245.55069046 381.41537666 246.15706253 C380.21208492 246.77477969 379.00813196 247.39121032 377.80356026 248.00642776 C377.19308846 248.31990158 376.58261665 248.6333754 375.95364571 248.95634842 C350.52361493 261.97768938 324.2320675 268.75638313 295.55356026 268.13142776 C295.33441963 268.77853714 295.11527901 269.42564651 294.88949776 270.09236526 C293.05860681 274.2573745 290.64983737 277.94545833 288.17856026 281.75642776 C287.69645088 282.51955276 287.21434151 283.28267776 286.71762276 284.06892776 C286.24324776 284.80369339 285.76887276 285.53845901 285.28012276 286.29549026 C284.85295967 286.96016312 284.42579659 287.62483597 283.98568916 288.30965042 C281.84618973 291.0312571 280.18931154 292.89833258 276.60376751 293.40927398 C274.03786124 293.52320312 271.48737389 293.535768 268.91893196 293.51910782 C267.93082242 293.52449336 266.94271288 293.52987889 265.92466062 293.53542763 C262.60430165 293.54976744 259.28433796 293.54258854 255.96396065 293.5354805 C253.58727382 293.5411809 251.21058973 293.54814387 248.83390999 293.55627823 C243.04280703 293.57239216 237.25182862 293.57430288 231.46070797 293.56906532 C226.75402686 293.56502538 222.04737782 293.56646509 217.34069824 293.57181358 C216.6710464 293.57256201 216.00139455 293.57331043 215.31145022 293.57408153 C213.95109101 293.57561299 212.5907318 293.57715134 211.2303726 293.5786965 C198.47043331 293.59242747 185.71055532 293.58697969 172.95061743 293.57551128 C161.2756418 293.56557849 149.60082465 293.57851924 137.92587347 293.60244548 C125.93966464 293.62682463 113.95352966 293.63644726 101.96729654 293.62979275 C95.23727176 293.62629785 88.50736888 293.62855032 81.77736282 293.64604378 C75.4498282 293.66147235 69.12259692 293.65760259 62.79507446 293.63873863 C60.47025169 293.63504145 58.14540664 293.63819386 55.82060432 293.64862442 C52.65177368 293.6617584 49.48395852 293.65035359 46.3151722 293.63263321 C45.39085539 293.64223822 44.46653859 293.65184322 43.51421219 293.66173929 C39.33945895 293.6135633 37.14261131 293.50346253 33.54105473 291.22877979 C31.62154232 289.2031675 30.12781486 287.29896323 28.69418526 284.90877151 C28.21852119 284.12308792 27.74285713 283.33740433 27.25277901 282.52791214 C26.77453682 281.7164473 26.29629463 280.90498245 25.80356026 280.06892776 C25.30984932 279.25359573 24.81613838 278.4382637 24.30746651 277.59822464 C20.71004311 271.60087631 20.71004311 271.60087631 19.55356026 268.13142776 C18.60481026 268.17783401 17.65606026 268.22424026 16.67856026 268.27205276 C-13.42553876 269.25616722 -40.51334111 259.48949988 -66.82143974 245.88142776 C-67.62436455 245.4693306 -68.42728935 245.05723343 -69.25454521 244.63264847 C-73.16669336 242.56419972 -76.68988447 240.698309 -79.44643974 237.13142776 C-80.18459618 231.12072535 -80.18459618 231.12072535 -78.18708611 228.44360733 C-76.02567341 226.81423468 -74.84721737 226.73847729 -72.15859795 226.69905472 C-70.86759933 226.66936348 -70.86759933 226.66936348 -69.55051994 226.63907242 C-68.16288696 226.62948753 -68.16288696 226.62948753 -66.74722099 226.61970901 C-65.7970359 226.60175781 -64.84685081 226.58380661 -63.86787224 226.56531143 C-60.83160662 226.51110884 -57.79549907 226.47728073 -54.75893974 226.44392776 C-52.70097499 226.41076349 -50.64303112 226.37627467 -48.58511162 226.34041214 C-43.53900155 226.25537657 -38.49293918 226.18861279 -33.44643974 226.13142776 C-34.62472343 225.21707962 -34.62472343 225.21707962 -35.82681084 224.2842598 C-43.39883154 218.06151249 -47.65697094 208.23664698 -48.72378349 198.63533401 C-49.15947523 187.46419789 -44.80902987 177.79770521 -37.88784599 169.19392776 C-28.79728967 159.42757469 -15.37780016 152.97632706 -2.44643974 150.13142776 C-0.46643974 150.13142776 1.51356026 150.13142776 3.55356026 150.13142776 C2.23356026 144.85142776 0.91356026 139.57142776 -0.44643974 134.13142776 C-2.42643974 133.80142776 -4.40643974 133.47142776 -6.44643974 133.13142776 C-12.86275612 117.38228757 -11.7595181 99.12252816 -11.74722099 82.42049026 C-11.75111775 80.19135332 -11.7554544 77.9622171 -11.76020622 75.73308182 C-11.76760424 71.1024927 -11.76742021 66.47197997 -11.76211357 61.8413887 C-11.75626748 55.9053494 -11.77340361 49.96961693 -11.79645824 44.03362846 C-11.81115774 39.44920908 -11.81207348 34.8648648 -11.80894852 30.28042603 C-11.80946167 28.08993157 -11.81469838 25.8994329 -11.82476044 23.70896149 C-11.83706026 20.66288897 -11.83037666 17.61743138 -11.8187542 14.57136917 C-11.82639793 13.66960449 -11.83404167 12.76783981 -11.84191704 11.83874893 C-11.79069624 5.78281779 -11.79069624 5.78281779 -10.11067009 2.60393143 C-7.0116406 -0.13807618 -3.94488831 0.00498478 0 0 Z M326.55356026 75.13142776 C326.26629896 84.70286674 326.26629896 84.70286674 325.98544502 94.27449417 C325.71635252 102.91617516 325.24327709 111.5112368 324.55356026 120.13142776 C334.55927902 120.21479657 342.908908 117.85344958 350.55356026 111.13142776 C352.9802414 108.3179612 354.8279999 105.41662922 356.55356026 102.13142776 C356.89387276 101.48947464 357.23418526 100.84752151 357.58481026 100.18611526 C360.87488084 92.41789306 359.73605506 83.34369379 359.55356026 75.13142776 C348.66356026 75.13142776 337.77356026 75.13142776 326.55356026 75.13142776 Z " fill="#FEECDD" transform="translate(98.44643974304199,178.86857223510742)"/>
<path d="M0 0 C1.13847661 -0.00384115 2.27695322 -0.00768229 3.44992912 -0.01163983 C4.70622914 -0.01077335 5.96252916 -0.00990687 7.25689888 -0.00901413 C8.60061037 -0.01159724 9.94432109 -0.01461025 11.28803074 -0.01801753 C14.98851655 -0.02609696 18.68898296 -0.02787762 22.38947654 -0.028615 C26.37729206 -0.03046389 30.36509748 -0.03801034 34.35290718 -0.04475021 C43.07592616 -0.05834021 51.79894056 -0.06435914 60.52196836 -0.06876087 C65.96625777 -0.07152186 71.4105454 -0.07575892 76.8548336 -0.08026505 C91.92197432 -0.09245801 106.98911361 -0.10275764 122.05625916 -0.10614014 C123.5031263 -0.10646949 123.5031263 -0.10646949 124.97922308 -0.10680549 C126.42959025 -0.10713291 126.42959025 -0.10713291 127.90925777 -0.10746694 C129.86865417 -0.10791041 131.82805057 -0.10835697 133.78744698 -0.10880661 C134.75937933 -0.10902804 135.73131169 -0.10924947 136.73269655 -0.10947761 C152.48807432 -0.1134272 168.24340589 -0.13088602 183.99876581 -0.15416613 C200.16597419 -0.17786244 216.33315937 -0.19034118 232.5003854 -0.19150805 C241.58119416 -0.19242572 250.66194271 -0.1982012 259.74273491 -0.21632767 C267.47382706 -0.23170538 275.20484037 -0.23686289 282.9359449 -0.22858956 C286.8818638 -0.22467492 290.82762384 -0.22565217 294.77352333 -0.23964691 C298.38455038 -0.25233713 301.99529841 -0.25123165 305.60632481 -0.2390562 C307.53412911 -0.2361583 309.46193802 -0.24807181 311.38970459 -0.26047826 C312.53339669 -0.25388841 313.67708879 -0.24729857 314.85543823 -0.24050903 C315.84222403 -0.24110612 316.82900984 -0.24170321 317.84569824 -0.24231839 C321.05573961 0.20073986 322.94535216 1.23794997 325.55356026 3.13142776 C327.1133309 6.25096904 326.67460152 9.5610216 326.65121651 12.98299026 C326.64909409 14.14403778 326.64909409 14.14403778 326.64692879 15.3285408 C326.64132429 17.80454218 326.62877109 20.28045365 326.61606026 22.75642776 C326.61104583 24.43350979 326.60648283 26.11059324 326.60238838 27.78767776 C326.59135341 31.90229582 326.5740858 36.01684654 326.55356026 40.13142776 C327.36122337 40.12476593 328.16888649 40.1181041 329.00102425 40.11124039 C336.60831822 40.0511572 344.21549734 40.00546774 351.82296658 39.97599125 C355.73416252 39.96032767 359.6451626 39.93907714 363.5562458 39.90510941 C367.32988284 39.87254008 371.10333135 39.85457996 374.87709808 39.84679604 C376.31764062 39.84124811 377.75817271 39.83041441 379.1986351 39.81423759 C381.21438365 39.79249818 383.23032147 39.79120266 385.24618721 39.79085159 C386.39424339 39.78418976 387.54229958 39.77752792 388.72514534 39.77066422 C391.55356026 40.13142776 391.55356026 40.13142776 393.42251778 41.34222794 C394.91910323 43.7096814 394.94063135 45.30307047 394.95761299 48.0992012 C394.97663925 49.61788803 394.97663925 49.61788803 394.99604988 51.1672554 C394.99164642 52.81241135 394.99164642 52.81241135 394.98715401 54.49080276 C394.99239586 55.6273732 394.99763771 56.76394363 395.00303841 57.9349556 C395.00947155 60.34923359 395.00810501 62.76354288 394.99960518 65.17781448 C394.99118882 68.82570417 395.01968763 72.47197794 395.05160713 76.11970901 C395.12311012 99.35608471 391.12639751 117.6526798 374.55356026 135.13142776 C358.87774992 150.4632548 338.9725845 155.37608954 317.57309151 155.16658401 C316.57342354 155.14918167 316.57342354 155.14918167 315.55356026 155.13142776 C315.22356026 156.28642776 314.89356026 157.44142776 314.55356026 158.63142776 C307.06502169 180.888061 287.39389987 215.21125796 265.55356026 226.13142776 C266.52346759 226.13501029 266.52346759 226.13501029 267.51296902 226.1386652 C283.23649746 226.19776646 298.95984798 226.27328496 314.6832037 226.36714268 C322.28686641 226.41213423 329.89048194 226.45154103 337.49423409 226.47786331 C344.12062585 226.50081632 350.7468687 226.53418383 357.37314242 226.58012933 C360.88267881 226.60409826 364.39206739 226.62280284 367.90168381 226.62904167 C371.81681344 226.63619629 375.73157201 226.66659924 379.64657784 226.69905472 C380.81398506 226.69761963 381.98139229 226.69618454 383.18417549 226.69470596 C384.24848289 226.70724411 385.3127903 226.71978226 386.40934944 226.73270035 C387.33575139 226.73730931 388.26215334 226.74191828 389.21662807 226.74666691 C391.55356026 227.13142776 391.55356026 227.13142776 393.34772968 228.44150448 C395.39503345 231.31071877 394.97010716 233.73954585 394.55356026 237.13142776 C391.77082467 240.49953107 388.66209654 242.36373213 384.81918526 244.37361526 C383.69592842 244.96215286 382.57267159 245.55069046 381.41537666 246.15706253 C380.21208492 246.77477969 379.00813196 247.39121032 377.80356026 248.00642776 C377.19308846 248.31990158 376.58261665 248.6333754 375.95364571 248.95634842 C350.52361493 261.97768938 324.2320675 268.75638313 295.55356026 268.13142776 C295.33441963 268.77853714 295.11527901 269.42564651 294.88949776 270.09236526 C293.05860681 274.2573745 290.64983737 277.94545833 288.17856026 281.75642776 C287.69645088 282.51955276 287.21434151 283.28267776 286.71762276 284.06892776 C286.24324776 284.80369339 285.76887276 285.53845901 285.28012276 286.29549026 C284.85295967 286.96016312 284.42579659 287.62483597 283.98568916 288.30965042 C281.84618973 291.0312571 280.18931154 292.89833258 276.60376751 293.40927398 C274.03786124 293.52320312 271.48737389 293.535768 268.91893196 293.51910782 C267.93082242 293.52449336 266.94271288 293.52987889 265.92466062 293.53542763 C262.60430165 293.54976744 259.28433796 293.54258854 255.96396065 293.5354805 C253.58727382 293.5411809 251.21058973 293.54814387 248.83390999 293.55627823 C243.04280703 293.57239216 237.25182862 293.57430288 231.46070797 293.56906532 C226.75402686 293.56502538 222.04737782 293.56646509 217.34069824 293.57181358 C216.6710464 293.57256201 216.00139455 293.57331043 215.31145022 293.57408153 C213.95109101 293.57561299 212.5907318 293.57715134 211.2303726 293.5786965 C198.47043331 293.59242747 185.71055532 293.58697969 172.95061743 293.57551128 C161.2756418 293.56557849 149.60082465 293.57851924 137.92587347 293.60244548 C125.93966464 293.62682463 113.95352966 293.63644726 101.96729654 293.62979275 C95.23727176 293.62629785 88.50736888 293.62855032 81.77736282 293.64604378 C75.4498282 293.66147235 69.12259692 293.65760259 62.79507446 293.63873863 C60.47025169 293.63504145 58.14540664 293.63819386 55.82060432 293.64862442 C52.65177368 293.6617584 49.48395852 293.65035359 46.3151722 293.63263321 C45.39085539 293.64223822 44.46653859 293.65184322 43.51421219 293.66173929 C39.33945895 293.6135633 37.14261131 293.50346253 33.54105473 291.22877979 C31.62154232 289.2031675 30.12781486 287.29896323 28.69418526 284.90877151 C28.21852119 284.12308792 27.74285713 283.33740433 27.25277901 282.52791214 C26.77453682 281.7164473 26.29629463 280.90498245 25.80356026 280.06892776 C25.30984932 279.25359573 24.81613838 278.4382637 24.30746651 277.59822464 C20.71004311 271.60087631 20.71004311 271.60087631 19.55356026 268.13142776 C18.60481026 268.17783401 17.65606026 268.22424026 16.67856026 268.27205276 C-13.42553876 269.25616722 -40.51334111 259.48949988 -66.82143974 245.88142776 C-67.62436455 245.4693306 -68.42728935 245.05723343 -69.25454521 244.63264847 C-73.16669336 242.56419972 -76.68988447 240.698309 -79.44643974 237.13142776 C-80.18459618 231.12072535 -80.18459618 231.12072535 -78.18708611 228.44360733 C-76.02567341 226.81423468 -74.84721737 226.73847729 -72.15859795 226.69905472 C-70.86759933 226.66936348 -70.86759933 226.66936348 -69.55051994 226.63907242 C-68.16288696 226.62948753 -68.16288696 226.62948753 -66.74722099 226.61970901 C-65.7970359 226.60175781 -64.84685081 226.58380661 -63.86787224 226.56531143 C-60.83160662 226.51110884 -57.79549907 226.47728073 -54.75893974 226.44392776 C-52.70097499 226.41076349 -50.64303112 226.37627467 -48.58511162 226.34041214 C-43.53900155 226.25537657 -38.49293918 226.18861279 -33.44643974 226.13142776 C-34.62472343 225.21707962 -34.62472343 225.21707962 -35.82681084 224.2842598 C-43.39883154 218.06151249 -47.65697094 208.23664698 -48.72378349 198.63533401 C-49.15947523 187.46419789 -44.80902987 177.79770521 -37.88784599 169.19392776 C-26.20381923 156.64130429 -8.24686948 149.79948839 8.62387276 148.84627151 C15.49282679 148.63532322 21.66392426 149.05922469 28.34237862 150.7217598 C31.86922102 151.57455706 34.89845727 152.09319447 38.55356026 152.13142776 C41.6075382 150.12896917 43.21376456 148.00745377 45.32699776 145.04158401 C52.62132138 135.50777506 66.53780793 128.53159515 78.19027901 126.42049026 C89.2803131 125.06402329 98.82417009 126.46956072 108.19809151 132.96345901 C115.83992225 139.38867989 121.01414307 147.17332281 122.55356026 157.13142776 C124.1791777 181.03634065 118.15903845 199.79684982 102.42856026 218.00642776 C99.69513107 221.08011785 96.78007215 223.58536833 93.55356026 226.13142776 C112.60829069 226.36566902 131.66272652 226.54168189 150.71860123 226.64954948 C159.56788757 226.70097975 168.41627619 226.77101727 177.26498604 226.8858223 C184.98314517 226.98591106 192.70065382 227.05010708 200.41944396 227.07231271 C204.50189686 227.08528154 208.58248993 227.11546327 212.66434288 227.18872833 C234.42256848 228.34158014 234.42256848 228.34158014 253.05475044 218.8339119 C254.2916613 217.49618225 254.2916613 217.49618225 255.55356026 216.13142776 C257.15821154 214.6702232 258.79101819 213.2466612 260.43083572 211.82517815 C262.87865339 209.66986826 265.20484538 207.39404606 267.55356026 205.13142776 C268.24707588 204.5010762 268.94059151 203.87072464 269.65512276 203.22127151 C294.22818081 180.21563075 306.89807615 146.71981653 311.55356026 114.13142776 C311.88356026 81.13142776 312.21356026 48.13142776 312.55356026 14.13142776 C210.25356026 14.13142776 107.95356026 14.13142776 2.55356026 14.13142776 C-0.5182928 67.15317094 -0.5182928 67.15317094 4.55356026 119.13142776 C4.71869153 121.14819491 4.81843181 123.17097211 4.86606026 125.19392776 C4.92213448 126.75820511 4.92213448 126.75820511 4.97934151 128.35408401 C4.55356026 131.13142776 4.55356026 131.13142776 2.76840401 133.02205276 C-0.49052374 134.65439047 -2.97143065 133.86652584 -6.44643974 133.13142776 C-12.86275612 117.38228757 -11.7595181 99.12252816 -11.74722099 82.42049026 C-11.75111775 80.19135332 -11.7554544 77.9622171 -11.76020622 75.73308182 C-11.76760424 71.1024927 -11.76742021 66.47197997 -11.76211357 61.8413887 C-11.75626748 55.9053494 -11.77340361 49.96961693 -11.79645824 44.03362846 C-11.81115774 39.44920908 -11.81207348 34.8648648 -11.80894852 30.28042603 C-11.80946167 28.08993157 -11.81469838 25.8994329 -11.82476044 23.70896149 C-11.83706026 20.66288897 -11.83037666 17.61743138 -11.8187542 14.57136917 C-11.82639793 13.66960449 -11.83404167 12.76783981 -11.84191704 11.83874893 C-11.79069624 5.78281779 -11.79069624 5.78281779 -10.11067009 2.60393143 C-7.0116406 -0.13807618 -3.94488831 0.00498478 0 0 Z M326.55356026 75.13142776 C326.26629896 84.70286674 326.26629896 84.70286674 325.98544502 94.27449417 C325.71635252 102.91617516 325.24327709 111.5112368 324.55356026 120.13142776 C334.55927902 120.21479657 342.908908 117.85344958 350.55356026 111.13142776 C352.9802414 108.3179612 354.8279999 105.41662922 356.55356026 102.13142776 C356.89387276 101.48947464 357.23418526 100.84752151 357.58481026 100.18611526 C360.87488084 92.41789306 359.73605506 83.34369379 359.55356026 75.13142776 C348.66356026 75.13142776 337.77356026 75.13142776 326.55356026 75.13142776 Z " fill="#030202" transform="translate(98.44643974304199,178.86857223510742)"/>
<path d="M0 0 C134.64 0 269.28 0 408 0 C403.56533968 3.32599524 399.69794826 4.7268186 394.5 6.4375 C393.57815918 6.74316895 392.65631836 7.04883789 391.70654297 7.36376953 C382.30313938 10.38200776 372.7442769 12.4322173 363 14 C362.05060295 14.16958819 361.1012059 14.33917639 360.12303925 14.51390362 C354.68465895 15.28000242 349.2151448 15.14804923 343.73400879 15.14717102 C341.88115414 15.15268605 341.88115414 15.15268605 339.99086809 15.1583125 C336.57359422 15.16740444 333.15636824 15.17204137 329.73908687 15.17470181 C326.04820312 15.17861979 322.35733308 15.18819738 318.66645813 15.19691467 C309.75557933 15.21664239 300.84469945 15.22674297 291.93380427 15.23564246 C287.72784652 15.24003352 283.52189 15.24539839 279.31593323 15.25063133 C265.31581636 15.26764386 251.31570026 15.2821334 237.31557465 15.28938007 C233.68548074 15.2912897 230.05538685 15.29321006 226.42529297 15.29516602 C225.07207419 15.29589163 225.07207419 15.29589163 223.69151765 15.2966319 C209.10927773 15.30491481 194.52712029 15.33022212 179.94491631 15.36274669 C164.94140737 15.39593527 149.93794016 15.41383965 134.93439436 15.41702431 C126.52374118 15.4191791 118.1132081 15.42777456 109.70259094 15.45348549 C102.53240505 15.47535478 95.36236843 15.48316439 88.19215298 15.47351871 C84.54365813 15.46901968 80.89547015 15.47059761 77.24701881 15.49028015 C49.79033102 15.63005069 25.2133327 12.22184315 0 1 C0 0.67 0 0.34 0 0 Z " fill="#B8BABC" transform="translate(52,419)"/>
<path d="M0 0 C80.52 0 161.04 0 244 0 C242.24858504 4.3785374 240.37016034 7.97072742 238 12 C208.54692047 12.22812235 179.09388272 12.40509414 149.64010527 12.51065329 C146.16290076 12.52316037 142.68569799 12.53610359 139.20849609 12.54931641 C138.51624733 12.55193951 137.82399856 12.55456261 137.11077257 12.55726521 C125.90159673 12.60077973 114.69293372 12.67962514 103.48406212 12.77152796 C91.98277089 12.86504191 80.48184047 12.91983848 68.98017657 12.94088495 C62.51955071 12.95393543 56.06008791 12.98465572 49.59983444 13.05730057 C43.52071619 13.12510668 37.44324146 13.14613065 31.36378098 13.13107681 C29.13120596 13.1338312 26.89857683 13.15376818 24.66632843 13.19205475 C7.76268338 13.46779206 7.76268338 13.46779206 3.31926346 9.76774216 C1.32380765 6.56903524 0 3.80711777 0 0 Z " fill="#A1A3A6" transform="translate(134,447)"/>
<path d="M0 0 C3.33147545 3.33147545 3.17634891 6.93363258 3.25 11.5 C3.08464463 28.46959453 -4.99378265 44.39727096 -16.45703125 56.609375 C-24.8308058 64.48149485 -35.53679685 70.96659411 -47.3125 71.375 C-51.15689605 70.98404447 -54.34655615 70.21781462 -58 69 C-58.44799087 59.59219168 -56.81466546 52.30125778 -50.7578125 44.8984375 C-44.35704599 37.98560967 -37.12917313 34.60513252 -28.60131836 30.98046875 C-22.64771753 28.40593866 -17.69048849 25.54896513 -13 21 C-12.38125 20.41992188 -11.7625 19.83984375 -11.125 19.2421875 C-5.7454275 13.70030031 -2.93891989 7.06201995 0 0 Z " fill="#A6794E" transform="translate(206,334)"/>
<path d="M0 0 C1.12148437 -0.01417969 2.24296875 -0.02835937 3.3984375 -0.04296875 C6.57384842 0.18384632 8.76734718 0.83359332 11.625 2.1875 C12.49857007 11.27262877 9.1448094 19.50274761 3.4375 26.5625 C-2.29559495 32.52985044 -9.48640837 35.83146573 -16.9375 39.1875 C-30.42053573 45.31183665 -39.54988001 53.33721471 -45.375 67.1875 C-45.705 68.1775 -46.035 69.1675 -46.375 70.1875 C-47.035 70.1875 -47.695 70.1875 -48.375 70.1875 C-52.37137929 58.19836213 -49.20903539 44.37736258 -44.0546875 33.3671875 C-35.55645308 16.69578774 -19.92036626 0.11396091 0 0 Z " fill="#A67A4E" transform="translate(183.375,317.8125)"/>
<path d="M0 0 C1.44579605 0.63118203 2.89388333 1.25713168 4.34375 1.87890625 C15.72472049 7.00034297 15.72472049 7.00034297 19.125 12.33203125 C20.33532354 15.54154991 21.21025429 18.6670054 22 22 C23.01265048 24.28449117 23.01265048 24.28449117 24 26 C7.3270462 30.87140215 -9.21102694 30.81973891 -24.9375 22.625 C-26.31138436 21.78129736 -27.66717287 20.90717375 -29 20 C-29.63550781 19.57074219 -30.27101563 19.14148438 -30.92578125 18.69921875 C-35.83262046 14.96918038 -39.35111485 9.98337965 -41 4 C-40.22751488 1.20677567 -39.30039508 0.21867841 -36.9609375 -1.484375 C-24.2925208 -7.68462728 -12.27198667 -6.32960477 0 0 Z " fill="#966A42" transform="translate(105,377)"/>
<path d="M0 0 C18.15 0 36.3 0 55 0 C55.0825 5.94 55.165 11.88 55.25 18 C55.28641602 19.83820313 55.32283203 21.67640625 55.36035156 23.5703125 C55.56881564 41.76540796 52.05565459 58.26771049 39.19140625 71.9375 C26.08020583 84.27745333 11.57934782 88.48906995 -6 88 C-6.04254356 86.00045254 -6.04080783 83.99958364 -6 82 C-4.2370245 80.2370245 -1.79323665 80.42174099 0.57421875 80.04980469 C15.73036785 77.66316151 27.3217859 73.4028909 37.43359375 61.296875 C44.87688274 50.38252606 46.35993095 38.03386635 46.375 25.1875 C46.41173828 23.51010742 46.41173828 23.51010742 46.44921875 21.79882812 C46.45308594 20.72439453 46.45695312 19.64996094 46.4609375 18.54296875 C46.46915527 17.57383545 46.47737305 16.60470215 46.48583984 15.60620117 C46.14977053 12.93068544 46.14977053 12.93068544 44.56982422 10.69165039 C40.66294871 8.1198529 37.0069288 8.39689787 32.421875 8.390625 C31.4953009 8.37408875 30.56872681 8.35755249 29.61407471 8.34051514 C26.659316 8.29199274 23.70507211 8.27065476 20.75 8.25 C18.74476571 8.22184387 16.73955544 8.19191695 14.734375 8.16015625 C9.82295904 8.08623255 4.91182959 8.03668376 0 8 C0 5.36 0 2.72 0 0 Z " fill="#FBD2B8" transform="translate(425,232)"/>
<path d="M0 0 C5.77412975 3.11803006 7.29469733 9.39428311 9.4375 15.3125 C11.41721548 24.86171584 11.5440093 35.17312349 6.5 43.69921875 C4.81699777 46.13287823 3.07397684 48.4600979 1.125 50.6875 C-0.76067745 54.45885491 -0.39513764 58.5811502 0.125 62.6875 C1.29171714 65.84356874 2.62775403 68.81768423 4.12890625 71.828125 C5.32080778 75.2495835 5.07560271 77.22319014 4.125 80.6875 C2.4375 82.625 2.4375 82.625 0.125 83.6875 C-2.89348184 83.56429666 -4.97758259 83.38882363 -7.39453125 81.5 C-9.34489751 79.11221651 -10.34023796 76.66565693 -11.5 73.8125 C-11.92539062 72.78382813 -12.35078125 71.75515625 -12.7890625 70.6953125 C-15.8066276 62.33730846 -16.06102695 53.24049152 -13.0078125 44.8515625 C-11.69880934 42.35091508 -10.07118589 40.53472113 -8.1875 38.4375 C-4.30760558 33.72737394 -4.04902524 29.8871748 -4.36328125 23.90234375 C-4.99951216 19.90525951 -6.29847375 16.57429232 -7.97265625 12.91015625 C-9.27370848 9.70539989 -9.36046046 7.08572323 -8.875 3.6875 C-6.54844326 0.36384752 -4.0341041 -0.43848958 0 0 Z " fill="#0D0D0D" transform="translate(283.875,55.3125)"/>
<path d="M0 0 C2.6146026 2.84055591 3.85199365 5.82396621 5.125 9.4375 C5.45757812 10.36433594 5.79015625 11.29117188 6.1328125 12.24609375 C9.10802159 21.69439288 9.36761295 31.61679764 5.2890625 40.7421875 C3.97004689 43.05246333 2.47513275 44.9180318 0.75 46.9375 C-2.42272064 50.93963745 -2.74125737 54.16610996 -2.4765625 59.1953125 C-1.83326898 62.98125304 -0.4620275 66.21578186 1.09765625 69.70703125 C2.3718235 72.9448502 2.48915152 75.57593939 2 79 C0.9375 80.9375 0.9375 80.9375 -1 82 C-4.4375 82.4375 -4.4375 82.4375 -8 82 C-14.47500393 76.84466354 -16.49621269 67.99431371 -17.4921875 60.09765625 C-17.86805828 49.20845853 -14.96825355 42.21258455 -8 34 C-5.44237549 26.32712646 -7.20290939 19.9062356 -10.09375 12.6171875 C-11.43197342 8.75249056 -11.57897548 6.05282836 -11 2 C-7.95184114 -2.0235697 -4.53799409 -1.23763475 0 0 Z " fill="#000000" transform="translate(253,41)"/>
<path d="M0 0 C5.64940338 3.05067782 7.26653982 9.14513715 9.2421875 14.99609375 C11.35902615 23.8474766 11.76593325 34.72928575 7.34375 42.89453125 C5.45231322 45.67712574 3.34926713 48.16265623 1.125 50.6875 C-1.5154796 58.60893881 0.84568264 64.18962429 4.12890625 71.5390625 C5.25628814 75.10247348 5.11934694 77.1150267 4.125 80.6875 C2.4375 82.625 2.4375 82.625 0.125 83.6875 C-3.56441123 83.6875 -5.26073321 83.24756678 -8 80.75 C-13.66670852 71.49437608 -16.4514452 61.1916264 -14.44921875 50.390625 C-13.1266398 45.81433956 -11.08814338 42.44221543 -8.25 38.625 C-5.09135006 34.27516428 -3.32991985 31.11848039 -3.875 25.6875 C-4.82506386 20.98368732 -6.13320594 16.48861867 -7.9609375 12.05078125 C-9.11302319 9.07209816 -9.2192874 6.8549441 -8.875 3.6875 C-6.49260247 0.39752246 -4.0526596 -0.44050648 0 0 Z " fill="#0C0C0D" transform="translate(215.875,55.3125)"/>
<path d="M0 0 C-0.1853833 0.53294678 -0.3707666 1.06589355 -0.56176758 1.61499023 C-2.52786884 7.37370396 -4.17441298 13.17014601 -5.6875 19.0625 C-5.91244141 19.92810547 -6.13738281 20.79371094 -6.36914062 21.68554688 C-6.91551056 23.78965238 -7.45815403 25.89472496 -8 28 C-11.50519434 27.23268179 -14.40435769 25.8371747 -17.58203125 24.16796875 C-30.37207694 17.45260153 -43.56296582 14.39717507 -58 18 C-58.99 18.33 -59.98 18.66 -61 19 C-56.99895453 9.71922442 -46.9073671 4.61932258 -38 1 C-26.0446775 -3.36385739 -12.19320355 -3.54711376 0 0 Z " fill="#956942" transform="translate(129,343)"/>
</svg>
